# xmcd CD database file
#
# Track frame offsets:
#	150
#	28738
#	56810
#	78785
#	103060
#	127598
#	145375
#	164028
#	180775
#	198508
#	213953
#	232521
#	250358
#	275616
#	298671
#
# Disc length: 4282 seconds
#
# Revision: 1
# Processed by: cddbd v1.5.2PL0 Copyright (c) Steve Scherf et al.
# Submitted via: CDex 1.51
#
DISCID=d110b80f
DTITLE=Marcel Dadi - Nashville - Rendez-vous
DYEAR=1990
DGENRE=Jazz
TTITLE0=Merci pour Maayane
TTITLE1=Robert the President
TTITLE2=Goodbye Blue Sky (Song for Dominique)
TTITLE3=Swingy Boogie
TTITLE4=La Marcellaise
TTITLE5=Nashville Rumba
TTITLE6=Like Father and Son
TTITLE7=Song for Jerry
TTITLE8=Le Diset's Weeding
TTITLE9=Woody Good Picker
TTITLE10=Je Veux Réveiller l'Aurore
TTITLE11=Black Stars
TTITLE12=Spirit of Merle
TTITLE13=Hotel Shoeshine
TTITLE14=Song for Léo Revisited
EXTD=YEAR: 1990
EXTT0=
EXTT1=
EXTT2=
EXTT3=
EXTT4=
EXTT5=
EXTT6=
EXTT7=
EXTT8=
EXTT9=
EXTT10=
EXTT11=
EXTT12=
EXTT13=
EXTT14=
PLAYORDER=
